<svg width="1380" height="768" viewBox="0 0 1380 768" fill="none" xmlns="http://www.w3.org/2000/svg">
<path d="M1325.14 768V0" stroke="white" stroke-opacity="0.07"/>
<path d="M1240.45 768V0" stroke="white" stroke-opacity="0.07"/>
<path d="M1155.74 768V0" stroke="white" stroke-opacity="0.07"/>
<path d="M1071.04 768V0" stroke="white" stroke-opacity="0.07"/>
<path d="M986.344 768V0" stroke="white" stroke-opacity="0.07"/>
<path d="M901.641 768V0" stroke="white" stroke-opacity="0.07"/>
<path d="M816.945 768V0" stroke="white" stroke-opacity="0.07"/>
<path d="M732.25 768V0" stroke="white" stroke-opacity="0.07"/>
<path d="M647.547 768V0" stroke="white" stroke-opacity="0.07"/>
<path d="M562.844 768V0" stroke="white" stroke-opacity="0.07"/>
<path d="M478.148 768V0" stroke="white" stroke-opacity="0.07"/>
<path d="M393.445 768V0" stroke="white" stroke-opacity="0.07"/>
<path d="M308.746 768V0" stroke="white" stroke-opacity="0.07"/>
<path d="M224.043 768V0" stroke="white" stroke-opacity="0.07"/>
<path d="M139.344 768V0" stroke="white" stroke-opacity="0.07"/>
<path d="M54.6406 768V0" stroke="white" stroke-opacity="0.07"/>
<path d="M1410 0H-29.8984" stroke="white" stroke-opacity="0.07"/>
<path d="M1410 85H-29.8984" stroke="white" stroke-opacity="0.07"/>
<path d="M1410 170H-29.8984" stroke="white" stroke-opacity="0.07"/>
<path d="M1410 255H-29.8984" stroke="white" stroke-opacity="0.07"/>
<path d="M1410 340H-29.8984" stroke="white" stroke-opacity="0.07"/>
</svg>
