<svg width="41" height="41" viewBox="0 0 41 41" fill="none" xmlns="http://www.w3.org/2000/svg">
<path fill-rule="evenodd" clip-rule="evenodd" d="M37.8263 39.4287C36.3919 38.2115 34.2303 38.2115 32.7958 39.4287C31.3614 40.6459 29.1998 40.6459 27.7653 39.4287C26.3309 38.2115 24.1693 38.2115 22.7348 39.4287C21.3004 40.6459 19.1388 40.6459 17.7044 39.4287C16.2699 38.2115 14.1083 38.2115 12.6739 39.4287C11.2394 40.6459 9.07783 40.6459 7.64339 39.4287C6.20895 38.2115 4.04734 38.2115 2.6129 39.4287C1.6383 40.2557 0.0976562 39.5952 0.0976562 38.3504V2.08881C0.0976562 0.844016 1.6383 0.183559 2.6129 1.01056C4.04734 2.22776 6.20895 2.22776 7.64339 1.01056C9.07783 -0.206644 11.2394 -0.206644 12.6739 1.01056C14.1083 2.22776 16.2699 2.22776 17.7044 1.01056C19.1388 -0.206644 21.3004 -0.206644 22.7348 1.01056C24.1693 2.22776 26.3309 2.22776 27.7653 1.01056C29.1998 -0.206644 31.3614 -0.206644 32.7958 1.01056C34.2303 2.22776 36.3919 2.22776 37.8263 1.01056C38.8009 0.183559 40.3416 0.844016 40.3416 2.08881V38.3504C40.3416 39.5952 38.8009 40.2557 37.8263 39.4287ZM8.4818 20.2196C8.4818 19.2935 9.23254 18.5428 10.1586 18.5428H30.2806C31.2067 18.5428 31.9574 19.2935 31.9574 20.2196C31.9574 21.1457 31.2067 21.8964 30.2806 21.8964H10.1586C9.23254 21.8964 8.4818 21.1457 8.4818 20.2196ZM10.1586 10.7176C9.23254 10.7176 8.4818 11.4683 8.4818 12.3944C8.4818 13.3205 9.23254 14.0712 10.1586 14.0712H30.2806C31.2067 14.0712 31.9574 13.3205 31.9574 12.3944C31.9574 11.4683 31.2067 10.7176 30.2806 10.7176H10.1586ZM8.4818 28.0448C8.4818 27.1187 9.23254 26.368 10.1586 26.368H30.2806C31.2067 26.368 31.9574 27.1187 31.9574 28.0448C31.9574 28.9709 31.2067 29.7216 30.2806 29.7216H10.1586C9.23254 29.7216 8.4818 28.9709 8.4818 28.0448Z" fill="#252222"/>
</svg>
