<svg width="46" height="37" viewBox="0 0 46 37" fill="none" xmlns="http://www.w3.org/2000/svg">
<path d="M27.6921 0.253906H18.749C10.3173 0.253906 6.10153 0.253906 3.48216 2.87328C1.5962 4.75924 1.06814 7.47282 0.920289 11.9917H45.5207C45.3729 7.47282 44.8448 4.75924 42.9589 2.87328C40.3395 0.253906 36.1237 0.253906 27.6921 0.253906Z" fill="white"/>
<path d="M18.749 36.0263H27.6921C36.1237 36.0263 40.3395 36.0263 42.9589 33.4069C45.5782 30.7875 45.5782 26.5717 45.5782 18.1401C45.5782 17.152 45.5782 16.2219 45.574 15.3454H0.867008C0.862793 16.2219 0.862793 17.152 0.862793 18.1401C0.862793 26.5717 0.862793 30.7875 3.48216 33.4069C6.10153 36.0263 10.3173 36.0263 18.749 36.0263Z" fill="white"/>
<path fill-rule="evenodd" clip-rule="evenodd" d="M8.12905 27.0832C8.12905 26.1571 8.87979 25.4063 9.80588 25.4063H18.749C19.6751 25.4063 20.4258 26.1571 20.4258 27.0832C20.4258 28.0093 19.6751 28.76 18.749 28.76H9.80588C8.87979 28.76 8.12905 28.0093 8.12905 27.0832Z" fill="#1C75E0"/>
<path fill-rule="evenodd" clip-rule="evenodd" d="M22.6616 27.0832C22.6616 26.1571 23.4123 25.4063 24.3384 25.4063H27.6921C28.6181 25.4063 29.3689 26.1571 29.3689 27.0832C29.3689 28.0093 28.6181 28.76 27.6921 28.76H24.3384C23.4123 28.76 22.6616 28.0093 22.6616 27.0832Z" fill="#1C75E0"/>
</svg>
