<svg width="111" height="20" viewBox="0 0 111 20" fill="none" xmlns="http://www.w3.org/2000/svg">
<path d="M8.89579 0.920829C9.09784 0.359725 9.90215 0.359723 10.1042 0.920827L12.2724 6.94193C12.3632 7.19421 12.6052 7.36275 12.8766 7.36275H18.3575C18.9728 7.36275 19.2349 8.1348 18.7437 8.50038L14.2132 11.8721C14.0043 12.0276 13.9121 12.2928 13.9804 12.5421L15.6664 18.6998C15.8261 19.2833 15.1449 19.7344 14.6581 19.3675L9.88932 15.7737C9.65948 15.6005 9.34055 15.6006 9.11075 15.7738L4.3445 19.3674C3.8578 19.7343 3.17655 19.2835 3.33608 18.7L5.01981 12.542C5.08796 12.2928 4.99577 12.0277 4.78688 11.8722L0.256301 8.50038C-0.23491 8.1348 0.0271484 7.36275 0.642451 7.36275H6.12339C6.39476 7.36275 6.63675 7.19421 6.7276 6.94193L8.89579 0.920829Z" fill="#00FFA5"/>
<path d="M31.8958 0.920829C32.0978 0.359725 32.9022 0.359723 33.1042 0.920827L35.2724 6.94193C35.3632 7.19421 35.6052 7.36275 35.8766 7.36275H41.3575C41.9728 7.36275 42.2349 8.1348 41.7437 8.50038L37.2132 11.8721C37.0043 12.0276 36.9121 12.2928 36.9804 12.5421L38.6664 18.6998C38.8261 19.2833 38.1449 19.7344 37.6581 19.3675L32.8893 15.7737C32.6595 15.6005 32.3406 15.6006 32.1108 15.7738L27.3445 19.3674C26.8578 19.7343 26.1765 19.2835 26.3361 18.7L28.0198 12.542C28.088 12.2928 27.9958 12.0277 27.7869 11.8722L23.2563 8.50038C22.7651 8.1348 23.0271 7.36275 23.6425 7.36275H29.1234C29.3948 7.36275 29.6368 7.19421 29.7276 6.94193L31.8958 0.920829Z" fill="#00FFA5"/>
<path d="M54.8958 0.920829C55.0978 0.359725 55.9022 0.359723 56.1042 0.920827L58.2724 6.94193C58.3632 7.19421 58.6052 7.36275 58.8766 7.36275H64.3575C64.9728 7.36275 65.2349 8.1348 64.7437 8.50038L60.2132 11.8721C60.0043 12.0276 59.9121 12.2928 59.9804 12.5421L61.6664 18.6998C61.8261 19.2833 61.1449 19.7344 60.6581 19.3675L55.8893 15.7737C55.6595 15.6005 55.3406 15.6006 55.1108 15.7738L50.3445 19.3674C49.8578 19.7343 49.1765 19.2835 49.3361 18.7L51.0198 12.542C51.088 12.2928 50.9958 12.0277 50.7869 11.8722L46.2563 8.50038C45.7651 8.1348 46.0271 7.36275 46.6425 7.36275H52.1234C52.3948 7.36275 52.6368 7.19421 52.7276 6.94193L54.8958 0.920829Z" fill="#00FFA5"/>
<path d="M77.8958 0.920829C78.0978 0.359725 78.9022 0.359723 79.1042 0.920827L81.2724 6.94193C81.3632 7.19421 81.6052 7.36275 81.8766 7.36275H87.3575C87.9728 7.36275 88.2349 8.1348 87.7437 8.50038L83.2132 11.8721C83.0043 12.0276 82.9121 12.2928 82.9804 12.5421L84.6664 18.6998C84.8261 19.2833 84.1449 19.7344 83.6581 19.3675L78.8893 15.7737C78.6595 15.6005 78.3406 15.6006 78.1108 15.7738L73.3445 19.3674C72.8578 19.7343 72.1765 19.2835 72.3361 18.7L74.0198 12.542C74.088 12.2928 73.9958 12.0277 73.7869 11.8722L69.2563 8.50038C68.7651 8.1348 69.0271 7.36275 69.6425 7.36275H75.1234C75.3948 7.36275 75.6368 7.19421 75.7276 6.94193L77.8958 0.920829Z" fill="#00FFA5"/>
<path d="M100.896 0.920829C101.098 0.359725 101.902 0.359723 102.104 0.920827L104.272 6.94193C104.363 7.19421 104.605 7.36275 104.877 7.36275H110.358C110.973 7.36275 111.235 8.1348 110.744 8.50038L106.213 11.8721C106.004 12.0276 105.912 12.2928 105.98 12.5421L107.666 18.6998C107.826 19.2833 107.145 19.7344 106.658 19.3675L101.889 15.7737C101.659 15.6005 101.341 15.6006 101.111 15.7738L96.3445 19.3674C95.8578 19.7343 95.1765 19.2835 95.3361 18.7L97.0198 12.542C97.088 12.2928 96.9958 12.0277 96.7869 11.8722L92.2563 8.50038C91.7651 8.1348 92.0271 7.36275 92.6425 7.36275H98.1234C98.3948 7.36275 98.6368 7.19421 98.7276 6.94193L100.896 0.920829Z" fill="#00FFA5"/>
</svg>
