<svg width="136" height="24" viewBox="0 0 136 24" fill="none" xmlns="http://www.w3.org/2000/svg">
<path d="M0 0H24V24H0V0Z" fill="#00B67A"/>
<path d="M12 16.2013L15.4762 15.2704L16.9286 20L12 16.2013ZM20 10.0881H13.881L12 4L10.119 10.0881H4L8.95238 13.8616L7.07143 19.9497L12.0238 16.1761L15.0714 13.8616L20 10.0881Z" fill="white"/>
<path d="M28 0H52V24H28V0Z" fill="#00B67A"/>
<path d="M40 16.2013L43.4762 15.2704L44.9286 20L40 16.2013ZM48 10.0881H41.881L40 4L38.119 10.0881H32L36.9524 13.8616L35.0714 19.9497L40.0238 16.1761L43.0714 13.8616L48 10.0881Z" fill="white"/>
<path d="M56 0H80V24H56V0Z" fill="#00B67A"/>
<path d="M68 16.2013L71.4762 15.2704L72.9286 20L68 16.2013ZM76 10.0881H69.881L68 4L66.119 10.0881H60L64.9524 13.8616L63.0714 19.9497L68.0238 16.1761L71.0714 13.8616L76 10.0881Z" fill="white"/>
<path d="M84 0H108V24H84V0Z" fill="#00B67A"/>
<path d="M96 16.2013L99.4762 15.2704L100.929 20L96 16.2013ZM104 10.0881H97.881L96 4L94.119 10.0881H88L92.9524 13.8616L91.0714 19.9497L96.0238 16.1761L99.0714 13.8616L104 10.0881Z" fill="white"/>
<path d="M112 0H136V24H112V0Z" fill="#00B67A"/>
<path d="M124 16.2013L127.476 15.2704L128.929 20L124 16.2013ZM132 10.0881H125.881L124 4L122.119 10.0881H116L120.952 13.8616L119.071 19.9497L124.024 16.1761L127.071 13.8616L132 10.0881Z" fill="white"/>
</svg>
