<svg width="46" height="46" viewBox="0 0 46 46" fill="none" xmlns="http://www.w3.org/2000/svg">
<path d="M21.5422 13.935C19.4498 14.5071 18.1886 16.1127 18.1886 17.6296C18.1886 19.1465 19.4498 20.7521 21.5422 21.3243V13.935Z" fill="white"/>
<path d="M24.8959 25.1138V32.5031C26.9883 31.931 28.2495 30.3254 28.2495 28.8085C28.2495 27.2916 26.9883 25.686 24.8959 25.1138Z" fill="white"/>
<path fill-rule="evenodd" clip-rule="evenodd" d="M45.5768 23.2191C45.5768 35.5669 35.5669 45.5768 23.2191 45.5768C10.8712 45.5768 0.861328 35.5669 0.861328 23.2191C0.861328 10.8712 10.8712 0.861328 23.2191 0.861328C35.5669 0.861328 45.5768 10.8712 45.5768 23.2191ZM23.2191 8.12759C24.1451 8.12759 24.8959 8.87833 24.8959 9.80442V10.5126C28.5412 11.1653 31.6032 13.904 31.6032 17.6296C31.6032 18.5557 30.8525 19.3065 29.9264 19.3065C29.0003 19.3065 28.2495 18.5557 28.2495 17.6296C28.2495 16.1127 26.9883 14.5071 24.8959 13.935V21.6914C28.5412 22.3441 31.6032 25.0828 31.6032 28.8085C31.6032 32.5342 28.5412 35.2728 24.8959 35.9255V36.6337C24.8959 37.5598 24.1451 38.3105 23.2191 38.3105C22.293 38.3105 21.5422 37.5598 21.5422 36.6337V35.9255C17.8969 35.2728 14.8349 32.5342 14.8349 28.8085C14.8349 27.8824 15.5856 27.1317 16.5117 27.1317C17.4378 27.1317 18.1886 27.8824 18.1886 28.8085C18.1886 30.3254 19.4498 31.931 21.5422 32.5031V24.7467C17.8969 24.094 14.8349 21.3553 14.8349 17.6296C14.8349 13.904 17.8969 11.1653 21.5422 10.5126V9.80442C21.5422 8.87833 22.293 8.12759 23.2191 8.12759Z" fill="white"/>
</svg>
