<svg width="64" height="64" viewBox="0 0 64 64" fill="none" xmlns="http://www.w3.org/2000/svg">
<rect width="64" height="64" rx="32" fill="#232039"/>
<path d="M32.0266 18.666C39.6 18.666 45.3333 24.8753 45.3333 31.9793C45.3333 40.2183 38.6133 45.3327 32 45.3327C29.8133 45.3327 27.3866 44.7451 25.44 43.5967C24.76 43.1828 24.1866 42.8757 23.4533 43.116L20.76 43.9172C20.08 44.1309 19.4666 43.5967 19.6666 42.8757L20.56 39.8845C20.7066 39.4706 20.68 39.0299 20.4666 38.6827C19.32 36.5729 18.6666 34.2627 18.6666 32.0194C18.6666 24.9955 24.28 18.666 32.0266 18.666ZM38.12 30.3235C37.1733 30.3235 36.4133 31.0846 36.4133 32.0327C36.4133 32.9675 37.1733 33.742 38.12 33.742C39.0666 33.742 39.8266 32.9675 39.8266 32.0327C39.8266 31.0846 39.0666 30.3235 38.12 30.3235ZM31.9733 30.3235C31.04 30.3101 30.2666 31.0846 30.2666 32.0194C30.2666 32.9675 31.0266 33.7286 31.9733 33.742C32.92 33.742 33.68 32.9675 33.68 32.0327C33.68 31.0846 32.92 30.3235 31.9733 30.3235ZM25.8266 30.3235C24.88 30.3235 24.12 31.0846 24.12 32.0327C24.12 32.9675 24.8933 33.742 25.8266 33.742C26.7733 33.7286 27.5333 32.9675 27.5333 32.0327C27.5333 31.0846 26.7733 30.3235 25.8266 30.3235Z" fill="white"/>
</svg>
