<svg width="36" height="36" viewBox="0 0 36 36" fill="none" xmlns="http://www.w3.org/2000/svg">
<path fill-rule="evenodd" clip-rule="evenodd" d="M25.9901 0H10.0099C4.02253 0 0 4.212 0 10.4798V25.5221C0 31.7899 4.02252 36 10.008 36H25.9901C31.9775 36 36 31.7899 36 25.5221V10.4798C36 4.212 31.9775 0 25.9901 0Z" fill="#FFFF1E"/>
<path fill-rule="evenodd" clip-rule="evenodd" d="M27.9436 14.1688L22.4261 21.3309C22.1949 21.6303 21.8539 21.8255 21.4787 21.8728C21.1017 21.9164 20.7227 21.816 20.4253 21.5829L15.2545 17.5358L10.7299 23.364C10.4495 23.724 10.0307 23.9135 9.60442 23.9135C9.30126 23.9135 8.99432 23.8149 8.73474 23.6141C8.11516 23.1309 8.00337 22.2404 8.48274 21.6208L13.8827 14.6672C14.1158 14.3678 14.4568 14.1745 14.832 14.1291C15.2015 14.0798 15.5842 14.1878 15.8817 14.4189L21.0486 18.4623L25.6945 12.4333C26.1701 11.8156 27.0606 11.6924 27.6859 12.1756C28.3074 12.6531 28.4229 13.5474 27.9436 14.1688ZM25.9901 0H10.0099C4.02253 0 0 4.212 0 10.4798V25.5221C0 31.7899 4.02253 36 10.008 36H25.9901C31.9775 36 36 31.7899 36 25.5221V10.4798C36 4.212 31.9775 0 25.9901 0Z" fill="#15123A"/>
</svg>
