<svg width="209" height="44" viewBox="0 0 209 44" fill="none" xmlns="http://www.w3.org/2000/svg">
<path fill-rule="evenodd" clip-rule="evenodd" d="M31.7657 0H12.2343C4.91642 0 0 5.148 0 12.8086V31.1937C0 38.8543 4.91642 44 12.232 44H31.7657C39.0836 44 44 38.8543 44 31.1937V12.8086C44 5.148 39.0836 0 31.7657 0Z" fill="#15113B"/>
<path fill-rule="evenodd" clip-rule="evenodd" d="M34.1533 17.3175L27.4097 26.0712C27.1272 26.4371 26.7103 26.6756 26.2518 26.7335C25.7909 26.7867 25.3278 26.664 24.9642 26.3792L18.6444 21.4326L13.1143 28.556C12.7716 28.996 12.2598 29.2276 11.7387 29.2276C11.3682 29.2276 10.9931 29.1072 10.6758 28.8617C9.91853 28.2712 9.7819 27.1827 10.3678 26.4255L16.9678 17.9265C17.2526 17.5606 17.6695 17.3244 18.128 17.2688C18.5796 17.2086 19.0474 17.3406 19.4109 17.6232L25.7261 22.5651L31.4044 15.1962C31.9857 14.4413 33.0741 14.2907 33.8383 14.8813C34.5979 15.4648 34.7392 16.5579 34.1533 17.3175ZM31.7657 0H12.2343C4.91642 0 0 5.148 0 12.8086V31.1937C0 38.8543 4.91642 44 12.232 44H31.7657C39.0836 44 44 38.8543 44 31.1937V12.8086C44 5.148 39.0836 0 31.7657 0Z" fill="#FFFF1E"/>
<path d="M60.262 35V14.362H52.34V10.52H72.281V14.362H64.359V35H60.262ZM73.3058 35V16.64H76.9268V21.111L76.4848 20.533C76.7114 19.921 77.0118 19.3657 77.3858 18.867C77.7711 18.357 78.2301 17.9377 78.7628 17.609C79.2161 17.303 79.7148 17.065 80.2588 16.895C80.8141 16.7137 81.3808 16.606 81.9588 16.572C82.5368 16.5267 83.0978 16.5493 83.6418 16.64V20.465C83.0978 20.3063 82.4688 20.2553 81.7548 20.312C81.0521 20.3687 80.4174 20.567 79.8508 20.907C79.2841 21.213 78.8194 21.604 78.4568 22.08C78.1054 22.556 77.8448 23.1 77.6748 23.712C77.5048 24.3127 77.4198 24.9643 77.4198 25.667V35H73.3058ZM91.5882 35.51C90.2622 35.51 89.1402 35.2607 88.2222 34.762C87.3042 34.252 86.6072 33.5777 86.1312 32.739C85.6666 31.9003 85.4342 30.9767 85.4342 29.968C85.4342 29.084 85.5816 28.2907 85.8762 27.588C86.1709 26.874 86.6242 26.262 87.2362 25.752C87.8482 25.2307 88.6416 24.8057 89.6162 24.477C90.3529 24.239 91.2142 24.0237 92.2002 23.831C93.1976 23.6383 94.2742 23.4627 95.4302 23.304C96.5976 23.134 97.8159 22.9527 99.0852 22.76L97.6232 23.593C97.6346 22.3237 97.3512 21.3887 96.7732 20.788C96.1952 20.1873 95.2206 19.887 93.8492 19.887C93.0219 19.887 92.2229 20.0797 91.4522 20.465C90.6816 20.8503 90.1432 21.5133 89.8372 22.454L86.0972 21.281C86.5506 19.7283 87.4119 18.4817 88.6812 17.541C89.9619 16.6003 91.6846 16.13 93.8492 16.13C95.4812 16.13 96.9149 16.3963 98.1502 16.929C99.3969 17.4617 100.321 18.3343 100.921 19.547C101.25 20.193 101.448 20.856 101.516 21.536C101.584 22.2047 101.618 22.9357 101.618 23.729V35H98.0312V31.022L98.6262 31.668C97.7989 32.994 96.8299 33.9687 95.7192 34.592C94.6199 35.204 93.2429 35.51 91.5882 35.51ZM92.4042 32.246C93.3336 32.246 94.1269 32.0817 94.7842 31.753C95.4416 31.4243 95.9629 31.022 96.3482 30.546C96.7449 30.07 97.0112 29.6223 97.1472 29.203C97.3626 28.6817 97.4816 28.0867 97.5042 27.418C97.5382 26.738 97.5552 26.1883 97.5552 25.769L98.8132 26.143C97.5779 26.3357 96.5182 26.5057 95.6342 26.653C94.7502 26.8003 93.9909 26.942 93.3562 27.078C92.7216 27.2027 92.1606 27.3443 91.6732 27.503C91.1972 27.673 90.7949 27.8713 90.4662 28.098C90.1376 28.3247 89.8826 28.5853 89.7012 28.88C89.5312 29.1747 89.4462 29.5203 89.4462 29.917C89.4462 30.3703 89.5596 30.7727 89.7862 31.124C90.0129 31.464 90.3416 31.736 90.7722 31.94C91.2142 32.144 91.7582 32.246 92.4042 32.246ZM114.017 35.51C112.124 35.51 110.509 35.0907 109.172 34.252C107.835 33.402 106.809 32.246 106.095 30.784C105.392 29.322 105.035 27.6673 105.024 25.82C105.035 23.9387 105.404 22.2727 106.129 20.822C106.866 19.36 107.908 18.2153 109.257 17.388C110.606 16.5493 112.209 16.13 114.068 16.13C116.153 16.13 117.916 16.657 119.355 17.711C120.806 18.7537 121.752 20.1817 122.194 21.995L118.114 23.1C117.797 22.114 117.27 21.349 116.533 20.805C115.796 20.2497 114.958 19.972 114.017 19.972C112.952 19.972 112.073 20.227 111.382 20.737C110.691 21.2357 110.181 21.927 109.852 22.811C109.523 23.695 109.359 24.698 109.359 25.82C109.359 27.5653 109.75 28.9763 110.532 30.053C111.314 31.1297 112.476 31.668 114.017 31.668C115.105 31.668 115.961 31.4187 116.584 30.92C117.219 30.4213 117.695 29.7017 118.012 28.761L122.194 29.696C121.627 31.566 120.636 33.0053 119.219 34.014C117.802 35.0113 116.068 35.51 114.017 35.51ZM125.567 35L125.601 10.52H129.749V25.48L136.464 16.64H141.581L134.458 25.82L142.193 35H136.77L129.749 26.16V35H125.567ZM143.896 35V10.52H147.993V20.822H159.587V10.52H163.667V35H159.587V24.664H147.993V35H143.896ZM175.318 35.527C173.958 35.527 172.836 35.3003 171.952 34.847C171.068 34.3937 170.365 33.8157 169.844 33.113C169.322 32.4103 168.937 31.6623 168.688 30.869C168.438 30.0757 168.274 29.3277 168.195 28.625C168.127 27.911 168.093 27.333 168.093 26.891V16.64H172.241V25.48C172.241 26.0467 172.28 26.687 172.36 27.401C172.439 28.1037 172.62 28.7837 172.904 29.441C173.198 30.087 173.629 30.6197 174.196 31.039C174.774 31.4583 175.55 31.668 176.525 31.668C177.046 31.668 177.562 31.583 178.072 31.413C178.582 31.243 179.041 30.954 179.449 30.546C179.868 30.1267 180.202 29.5543 180.452 28.829C180.701 28.1037 180.826 27.1857 180.826 26.075L183.257 27.112C183.257 28.676 182.951 30.0927 182.339 31.362C181.738 32.6313 180.848 33.6457 179.67 34.405C178.491 35.153 177.04 35.527 175.318 35.527ZM181.319 35V29.305H180.826V16.64H184.94V35H181.319ZM198.539 35.51C196.748 35.51 195.247 35.085 194.034 34.235C192.821 33.385 191.909 32.229 191.297 30.767C190.685 29.2937 190.379 27.6447 190.379 25.82C190.379 23.9727 190.685 22.318 191.297 20.856C191.909 19.394 192.804 18.2437 193.983 17.405C195.173 16.555 196.641 16.13 198.386 16.13C200.12 16.13 201.622 16.555 202.891 17.405C204.172 18.2437 205.163 19.394 205.866 20.856C206.569 22.3067 206.92 23.9613 206.92 25.82C206.92 27.656 206.574 29.305 205.883 30.767C205.192 32.229 204.217 33.385 202.959 34.235C201.701 35.085 200.228 35.51 198.539 35.51ZM189.682 35V10.52H193.813V22.114H193.303V35H189.682ZM197.91 31.838C198.975 31.838 199.854 31.5717 200.545 31.039C201.236 30.5063 201.746 29.7867 202.075 28.88C202.415 27.962 202.585 26.942 202.585 25.82C202.585 24.7093 202.415 23.7007 202.075 22.794C201.735 21.876 201.208 21.1507 200.494 20.618C199.78 20.074 198.873 19.802 197.774 19.802C196.731 19.802 195.881 20.057 195.224 20.567C194.567 21.0657 194.079 21.7683 193.762 22.675C193.456 23.5703 193.303 24.6187 193.303 25.82C193.303 27.01 193.456 28.0583 193.762 28.965C194.079 29.8717 194.572 30.58 195.241 31.09C195.921 31.5887 196.811 31.838 197.91 31.838Z" fill="white"/>
</svg>
