<svg width="155" height="36" viewBox="0 0 155 36" fill="none" xmlns="http://www.w3.org/2000/svg">
<path fill-rule="evenodd" clip-rule="evenodd" d="M25.9901 0H10.0099C4.02253 0 0 4.212 0 10.4798V25.5221C0 31.7899 4.02252 36 10.008 36H25.9901C31.9775 36 36 31.7899 36 25.5221V10.4798C36 4.212 31.9775 0 25.9901 0Z" fill="#FFFF1E"/>
<path fill-rule="evenodd" clip-rule="evenodd" d="M27.9436 14.1688L22.4261 21.3309C22.1949 21.6303 21.8539 21.8255 21.4787 21.8728C21.1017 21.9164 20.7227 21.816 20.4253 21.5829L15.2545 17.5358L10.7299 23.364C10.4495 23.724 10.0307 23.9135 9.60442 23.9135C9.30126 23.9135 8.99432 23.8149 8.73474 23.6141C8.11516 23.1309 8.00337 22.2404 8.48274 21.6208L13.8827 14.6672C14.1158 14.3678 14.4568 14.1745 14.832 14.1291C15.2015 14.0798 15.5842 14.1878 15.8817 14.4189L21.0486 18.4623L25.6945 12.4333C26.1701 11.8156 27.0606 11.6924 27.6859 12.1756C28.3074 12.6531 28.4229 13.5474 27.9436 14.1688ZM25.9901 0H10.0099C4.02253 0 0 4.212 0 10.4798V25.5221C0 31.7899 4.02253 36 10.008 36H25.9901C31.9775 36 36 31.7899 36 25.5221V10.4798C36 4.212 31.9775 0 25.9901 0Z" fill="#15123A"/>
<path d="M49.832 27V12.432H44.24V9.72H58.316V12.432H52.724V27H49.832ZM59.0394 27V14.04H61.5954V17.196L61.2834 16.788C61.4434 16.356 61.6554 15.964 61.9194 15.612C62.1914 15.252 62.5154 14.956 62.8914 14.724C63.2114 14.508 63.5634 14.34 63.9474 14.22C64.3394 14.092 64.7394 14.016 65.1474 13.992C65.5554 13.96 65.9514 13.976 66.3354 14.04V16.74C65.9514 16.628 65.5074 16.592 65.0034 16.632C64.5074 16.672 64.0594 16.812 63.6594 17.052C63.2594 17.268 62.9314 17.544 62.6754 17.88C62.4274 18.216 62.2434 18.6 62.1234 19.032C62.0034 19.456 61.9434 19.916 61.9434 20.412V27H59.0394ZM71.9446 27.36C71.0086 27.36 70.2166 27.184 69.5686 26.832C68.9206 26.472 68.4286 25.996 68.0926 25.404C67.7646 24.812 67.6006 24.16 67.6006 23.448C67.6006 22.824 67.7046 22.264 67.9126 21.768C68.1206 21.264 68.4406 20.832 68.8726 20.472C69.3046 20.104 69.8646 19.804 70.5526 19.572C71.0726 19.404 71.6806 19.252 72.3766 19.116C73.0806 18.98 73.8406 18.856 74.6566 18.744C75.4806 18.624 76.3406 18.496 77.2366 18.36L76.2046 18.948C76.2126 18.052 76.0126 17.392 75.6046 16.968C75.1966 16.544 74.5086 16.332 73.5406 16.332C72.9566 16.332 72.3926 16.468 71.8486 16.74C71.3046 17.012 70.9246 17.48 70.7086 18.144L68.0686 17.316C68.3886 16.22 68.9966 15.34 69.8926 14.676C70.7966 14.012 72.0126 13.68 73.5406 13.68C74.6926 13.68 75.7046 13.868 76.5766 14.244C77.4566 14.62 78.1086 15.236 78.5326 16.092C78.7646 16.548 78.9046 17.016 78.9526 17.496C79.0006 17.968 79.0246 18.484 79.0246 19.044V27H76.4926V24.192L76.9126 24.648C76.3286 25.584 75.6446 26.272 74.8606 26.712C74.0846 27.144 73.1126 27.36 71.9446 27.36ZM72.5206 25.056C73.1766 25.056 73.7366 24.94 74.2006 24.708C74.6646 24.476 75.0326 24.192 75.3046 23.856C75.5846 23.52 75.7726 23.204 75.8686 22.908C76.0206 22.54 76.1046 22.12 76.1206 21.648C76.1446 21.168 76.1566 20.78 76.1566 20.484L77.0446 20.748C76.1726 20.884 75.4246 21.004 74.8006 21.108C74.1766 21.212 73.6406 21.312 73.1926 21.408C72.7446 21.496 72.3486 21.596 72.0046 21.708C71.6686 21.828 71.3846 21.968 71.1526 22.128C70.9206 22.288 70.7406 22.472 70.6126 22.68C70.4926 22.888 70.4326 23.132 70.4326 23.412C70.4326 23.732 70.5126 24.016 70.6726 24.264C70.8326 24.504 71.0646 24.696 71.3686 24.84C71.6806 24.984 72.0646 25.056 72.5206 25.056ZM87.7768 27.36C86.4408 27.36 85.3008 27.064 84.3568 26.472C83.4128 25.872 82.6888 25.056 82.1848 24.024C81.6888 22.992 81.4368 21.824 81.4288 20.52C81.4368 19.192 81.6968 18.016 82.2088 16.992C82.7288 15.96 83.4648 15.152 84.4168 14.568C85.3688 13.976 86.5008 13.68 87.8128 13.68C89.2848 13.68 90.5288 14.052 91.5448 14.796C92.5688 15.532 93.2368 16.54 93.5488 17.82L90.6688 18.6C90.4448 17.904 90.0728 17.364 89.5528 16.98C89.0328 16.588 88.4408 16.392 87.7768 16.392C87.0248 16.392 86.4048 16.572 85.9168 16.932C85.4288 17.284 85.0688 17.772 84.8368 18.396C84.6048 19.02 84.4888 19.728 84.4888 20.52C84.4888 21.752 84.7648 22.748 85.3168 23.508C85.8688 24.268 86.6888 24.648 87.7768 24.648C88.5448 24.648 89.1488 24.472 89.5888 24.12C90.0368 23.768 90.3728 23.26 90.5968 22.596L93.5488 23.256C93.1488 24.576 92.4488 25.592 91.4488 26.304C90.4488 27.008 89.2248 27.36 87.7768 27.36ZM95.9294 27L95.9534 9.72H98.8814V20.28L103.621 14.04H107.233L102.205 20.52L107.665 27H103.837L98.8814 20.76V27H95.9294ZM108.868 27V9.72H111.76V16.992H119.944V9.72H122.824V27H119.944V19.704H111.76V27H108.868ZM131.048 27.372C130.088 27.372 129.296 27.212 128.672 26.892C128.048 26.572 127.552 26.164 127.184 25.668C126.816 25.172 126.544 24.644 126.368 24.084C126.192 23.524 126.076 22.996 126.02 22.5C125.972 21.996 125.948 21.588 125.948 21.276V14.04H128.876V20.28C128.876 20.68 128.904 21.132 128.96 21.636C129.016 22.132 129.144 22.612 129.344 23.076C129.552 23.532 129.856 23.908 130.256 24.204C130.664 24.5 131.212 24.648 131.9 24.648C132.268 24.648 132.632 24.588 132.992 24.468C133.352 24.348 133.676 24.144 133.964 23.856C134.26 23.56 134.496 23.156 134.672 22.644C134.848 22.132 134.936 21.484 134.936 20.7L136.652 21.432C136.652 22.536 136.436 23.536 136.004 24.432C135.58 25.328 134.952 26.044 134.12 26.58C133.288 27.108 132.264 27.372 131.048 27.372ZM135.284 27V22.98H134.936V14.04H137.84V27H135.284ZM147.439 27.36C146.175 27.36 145.115 27.06 144.259 26.46C143.403 25.86 142.759 25.044 142.327 24.012C141.895 22.972 141.679 21.808 141.679 20.52C141.679 19.216 141.895 18.048 142.327 17.016C142.759 15.984 143.391 15.172 144.223 14.58C145.063 13.98 146.099 13.68 147.331 13.68C148.555 13.68 149.615 13.98 150.511 14.58C151.415 15.172 152.115 15.984 152.611 17.016C153.107 18.04 153.355 19.208 153.355 20.52C153.355 21.816 153.111 22.98 152.623 24.012C152.135 25.044 151.447 25.86 150.559 26.46C149.671 27.06 148.631 27.36 147.439 27.36ZM141.187 27V9.72H144.103V17.904H143.743V27H141.187ZM146.995 24.768C147.747 24.768 148.367 24.58 148.855 24.204C149.343 23.828 149.703 23.32 149.935 22.68C150.175 22.032 150.295 21.312 150.295 20.52C150.295 19.736 150.175 19.024 149.935 18.384C149.695 17.736 149.323 17.224 148.819 16.848C148.315 16.464 147.675 16.272 146.899 16.272C146.163 16.272 145.563 16.452 145.099 16.812C144.635 17.164 144.291 17.66 144.067 18.3C143.851 18.932 143.743 19.672 143.743 20.52C143.743 21.36 143.851 22.1 144.067 22.74C144.291 23.38 144.639 23.88 145.111 24.24C145.591 24.592 146.219 24.768 146.995 24.768Z" fill="#15123A"/>
</svg>
